HIERARCHY
ROOT ui
{
	 OFFSET 0 0 0
	 CHANNELS 3 XPosition YPosition Z Position
	 EndSite
	 {
	 OFFSET 0 -1 0
	 }
}
ROOT li
{
	 OFFSET 0 0 0
	 CHANNELS 3 XPosition YPosition Z Position
	 EndSite
	 {
	 OFFSET 0 -1 0
	 }
}
ROOT ul
{
	 OFFSET 0 0 0
	 CHANNELS 3 XPosition YPosition Z Position
	 EndSite
	 {
	 OFFSET 0 -1 0
	 }
}
ROOT ll
{
	 OFFSET 0 0 0
	 CHANNELS 3 XPosition YPosition Z Position
	 EndSite
	 {
	 OFFSET 0 -1 0
	 }
}
ROOT tt
{
	 OFFSET 0 0 0
	 CHANNELS 3 XPosition YPosition Z Position
	 EndSite
	 {
	 OFFSET 0 -1 0
	 }
}
ROOT tb
{
	 OFFSET 0 0 0
	 CHANNELS 3 XPosition YPosition Z Position
	 EndSite
	 {
	 OFFSET 0 -1 0
	 }
}
ROOT td
{
	 OFFSET 0 0 0
	 CHANNELS 3 XPosition YPosition Z Position
	 EndSite
	 {
	 OFFSET 0 -1 0
	 }
}
ROOT v
{
	 OFFSET 0 0 0
	 CHANNELS 3 XPosition YPosition Z Position
	 EndSite
	 {
	 OFFSET 0 -1 0
	 }
}
ROOT bn
{
	 OFFSET 0 0 0
	 CHANNELS 3 XPosition YPosition Z Position
	 EndSite
	 {
	 OFFSET 0 -1 0
	 }
}
MOTION
Frames: 19
Frame Time: 0.002
0.02109033203125	-0.0035595710277557375	0		0.643668701171875	-2.568879150390625	0		-1.121534912109375	-0.05143968963623047	0		-0.32329898071289065	-2.9087958984375	0		1.962435791015625	-1.6389637451171875	0		2.932682373046875	-0.3170198669433594	0		4.430876953125	0.30081414794921874	0		6.00915625	0.61784521484375	0		-0.3501307678222656	5.90009326171875	0		
-0.04642804336547852	0.008947668075561523	0		0.6488578491210938	-2.561275390625	0		-1.1160047607421875	-0.034670589447021484	0		-0.2464129638671875	-2.924933349609375	0		1.996768310546875	-1.6268201904296875	0		2.9339560546875	-0.3205843811035156	0		4.42824365234375	0.3001548156738281	0		6.005748046875	0.5974498901367188	0		-0.3341341857910156	5.90867431640625	0		
0.02681998634338379	0.004846342086791992	0		0.6869242553710937	-2.560033935546875	0		-1.0366795654296874	-0.031741565704345706	0		-0.2983280334472656	-2.918557373046875	0		1.981891357421875	-1.628087158203125	0		2.9305986328125	-0.2880704040527344	0		4.4228046875	0.32055206298828126	0		6.0082080078125	0.6184498901367188	0		-0.31631430053710935	5.90625390625	0		
-0.058005481719970706	6.138510107994079E-4	0		0.631937744140625	-2.55768212890625	0		-1.041490478515625	-0.03481552505493164	0		-0.2405443572998047	-2.93344140625	0		2.0089986572265626	-1.625822021484375	0		2.885695556640625	-0.2970465087890625	0		4.4140859375	0.3220111389160156	0		6.0075048828125	0.584216552734375	0		-0.3515643615722656	5.90347705078125	0		
0.0181506404876709	-4.908530116081238E-4	0		0.6817973022460937	-2.56354248046875	0		-1.054200927734375	-0.023773462295532226	0		-0.2687737731933594	-2.943294677734375	0		1.9659874267578126	-1.6277083740234375	0		2.89305419921875	-0.2786092834472656	0		4.408373046875	0.32946047973632814	0		5.9997978515625	0.5865604858398438	0		-0.3518392333984375	5.90431298828125	0		
-0.05972530364990234	0.0022509539127349852	0		0.6406578979492188	-2.56330419921875	0		-1.0510489501953124	-0.01890097427368164	0		-0.22712152099609376	-2.957959716796875	0		2.0018931884765623	-1.6315089111328125	0		2.901110595703125	-0.28016094970703126	0		4.40058203125	0.33595944213867185	0		6.00109375	0.5437078247070313	0		-0.35119891357421873	5.90415673828125	0		
0.023384742736816407	0.008085240364074707	0		0.682537841796875	-2.557039794921875	0		-1.0498626708984375	-0.005989439010620117	0		-0.2612960205078125	-2.95270068359375	0		1.9920662841796875	-1.6077430419921874	0		2.891478515625	-0.2504772338867188	0		4.40288525390625	0.3553631286621094	0		6.00771923828125	0.5786002807617188	0		-0.3024296875	5.9204384765625	0		
-0.05460756301879883	0.010873092651367187	0		0.6813001098632813	-2.55624462890625	0		-1.0568128662109375	3.192099928855896E-5	0		-0.14083262634277344	-2.974300537109375	0		1.9858282470703126	-1.6140028076171875	0		2.883433837890625	-0.25079304504394534	0		4.40207568359375	0.3698271484375	0		6.00489990234375	0.58613232421875	0		-0.31804751586914065	5.91050341796875	0		
0.014238031387329101	0.0028888940811157226	0		0.6800274658203125	-2.5554375	0		-1.057865234375	9.888169765472413E-4	0		-0.24004844665527345	-2.9652255859375	0		1.9777349853515624	-1.60522314453125	0		2.8995419921875	-0.235384521484375	0		4.3962998046875	0.3903732604980469	0		6.00904296875	0.5658204345703125	0		-0.35264910888671874	5.9068125	0		
0.013160810470581055	0.003757086992263794	0		0.6777128295898438	-2.556612060546875	0		-1.0648682861328125	0.008019577026367188	0		-0.14956413269042967	-2.980466796875	0		1.9744873046875	-1.6074935302734374	0		2.877544921875	-0.2264986572265625	0		4.3952548828125	0.3908768310546875	0		6.0004345703125	0.5666853637695313	0		-0.35422271728515625	5.9087236328125	0		
0.026900976181030274	-0.009563382148742677	0		0.636401611328125	-2.557305419921875	0		-1.0678541259765626	0.0169939022064209	0		-0.23789320373535155	-2.979512451171875	0		1.9684100341796875	-1.5957247314453125	0		2.875577392578125	-0.21485140991210938	0		4.397435546875	0.4103529052734375	0		5.997419921875	0.5466527709960938	0		-0.31979019165039063	5.91318359375	0		
-0.041036724090576175	0.0031216468811035157	0		0.6921492309570313	-2.555210693359375	0		-1.0608330078125	0.025827714920043945	0		-0.14131770324707033	-2.988861328125	0		1.959534423828125	-1.5689228515625	0		2.89854248046875	-0.2095152282714844	0		4.385724609375	0.4380081787109375	0		6.014572265625	0.564096435546875	0		-0.3232471008300781	5.92809716796875	0		
0.009937648773193359	0.006306578159332275	0		0.6789845581054688	-2.548276123046875	0		-1.0778140869140624	0.03293678665161133	0		-0.15853794860839843	-2.9838173828125	0		1.9752996826171876	-1.5734407958984375	0		2.886995361328125	-0.1667528076171875	0		4.39893310546875	0.4573535461425781	0		6.01382177734375	0.5647926635742188	0		-0.2917877502441406	5.93655224609375	0		
0.023735466003417968	-0.007075210094451904	0		0.6757667846679688	-2.54948876953125	0		-1.0807235107421875	0.042838844299316406	0		-0.16280947875976562	-2.986962158203125	0		1.959373779296875	-1.5565765380859375	0		2.866897705078125	-0.17089637756347656	0		4.39520263671875	0.4789069519042969	0		6.00943798828125	0.548307373046875	0		-0.340632568359375	5.92098388671875	0		
0.022757997512817384	-0.006304700851440429	0		0.6397911376953125	-2.536315673828125	0		-1.072610107421875	0.05056129837036133	0		-0.16904161071777343	-2.99211669921875	0		2.0004390869140627	-1.5454547119140625	0		2.86812548828125	-0.15332345581054688	0		4.3905078125	0.49946368408203123	0		6.008744140625	0.5490119018554688	0		-0.32231845092773437	5.9165361328125	0		
0.016889766693115236	-0.001512537956237793	0		0.6756049194335938	-2.54608935546875	0		-1.0694759521484376	0.055298244476318356	0		-0.15923762512207032	-3.000516357421875	0		1.948580322265625	-1.533185302734375	0		2.889310546875	-0.1440285186767578	0		4.39369189453125	0.5059053955078125	0		6.00392138671875	0.5705986328125	0		-0.3418529357910156	5.92252490234375	0		
0.02098175621032715	-0.004894300937652588	0		0.6527315063476562	-2.537158935546875	0		-1.08003564453125	0.07915715026855469	0		-0.16023643493652343	-2.999826416015625	0		2.0058504638671875	-1.51733642578125	0		2.88388134765625	-0.10942205047607421	0		4.3835361328125	0.5595027465820313	0		6.0074833984375	0.5503914794921875	0		-0.2942156066894531	5.93960986328125	0		
0.020187353134155272	-0.004265232086181641	0		0.6679103393554687	-2.530760498046875	0		-1.08082666015625	0.07983066558837891	0		-0.16217726135253907	-3.001177001953125	0		1.97311279296875	-1.507378662109375	0		2.899183837890625	-0.10111394500732422	0		4.39784033203125	0.5657632446289063	0		6.00691845703125	0.5510578002929688	0		-0.3089096374511719	5.929431640625	0		
-0.05752958679199219	-0.001704725980758667	0		0.667091064453125	-2.530209228515625	0		-1.07652197265625	0.08337525177001953	0		-0.16808859252929687	-3.00653369140625	0		1.9975303955078125	-1.4911923828125	0		2.9156484375	-0.08485541534423828	0		4.39728955078125	0.5791907958984375	0		6.0063955078125	0.5517044677734375	0		-0.32459030151367185	5.919208984375	0		
